<svg width="32.000000" height="32.000000" viewBox="0 0 32 32" fill="none" xmlns="http://www.w3.org/2000/svg" xmlns:xlink="http://www.w3.org/1999/xlink">
	<desc>
			Created with Pixso.
	</desc>
	<defs/>
	<path id="Vector" d="M26 5C26.55 5 27 5.44 27 6L27 26C27 26.55 26.55 27 26 27L6 27C5.44 27 5 26.55 5 26L5 6C5 5.44 5.44 5 6 5L26 5Z" stroke="#FFFFFF" stroke-opacity="1.000000" stroke-width="2.000000" stroke-linejoin="round"/>
	<path id="Vector" d="M15 14L15 22" stroke="#FFFFFF" stroke-opacity="1.000000" stroke-width="2.000000" stroke-linejoin="round" stroke-linecap="round"/>
	<path id="Vector" d="M11 14L11 22" stroke="#FFFFFF" stroke-opacity="1.000000" stroke-width="2.000000" stroke-linejoin="round" stroke-linecap="round"/>
	<path id="Vector" d="M15 17.5C15 16.57 15.36 15.68 16.02 15.02C16.68 14.36 17.57 14 18.5 14C19.42 14 20.31 14.36 20.97 15.02C21.63 15.68 22 16.57 22 17.5L22 22" stroke="#FFFFFF" stroke-opacity="1.000000" stroke-width="2.000000" stroke-linejoin="round" stroke-linecap="round"/>
	<path id="Vector" d="M12.5 10C12.5 10.82 11.82 11.5 11 11.5C10.17 11.5 9.5 10.82 9.5 10C9.5 9.17 10.17 8.5 11 8.5C11.82 8.5 12.5 9.17 12.5 10Z" fill="#FFFFFF" fill-opacity="1.000000" fill-rule="evenodd"/>
</svg>
