<svg width="32.000000" height="32.000000" viewBox="0 0 32 32" fill="none" xmlns="http://www.w3.org/2000/svg" xmlns:xlink="http://www.w3.org/1999/xlink">
	<desc>
			Created with Pixso.
	</desc>
	<defs/>
	<path id="Vector" d="M11.99 21C11.99 21 3.99 18 5.99 7C5.99 7 9.99 12 15.99 13L15.99 11C16 9.85 16.39 8.73 17.12 7.84C17.84 6.95 18.85 6.34 19.97 6.1C21.1 5.87 22.27 6.03 23.29 6.55C24.31 7.08 25.12 7.94 25.58 9L29.99 9L25.99 13C25.99 20 20.99 27 11.99 27C7.99 27 5.99 25 5.99 25C5.99 25 10.99 24 11.99 21Z" stroke="#FFFFFF" stroke-opacity="1.000000" stroke-width="2.000000" stroke-linejoin="round"/>
</svg>
